<?xml version="1.0" encoding="UTF-8" standalone="no"?>
<!DOCTYPE svg PUBLIC "-//W3C//DTD SVG 1.1//EN" "http://www.w3.org/Graphics/SVG/1.1/DTD/svg11.dtd">
<svg width="100%" height="100%" viewBox="0 0 29 17" version="1.1" xmlns="http://www.w3.org/2000/svg" xmlns:xlink="http://www.w3.org/1999/xlink" xml:space="preserve" xmlns:serif="http://www.serif.com/" style="fill-rule:evenodd;clip-rule:evenodd;stroke-linejoin:round;stroke-miterlimit:1.41421;">
    <g transform="matrix(1,0,0,1,-392.629,-7399.46)">
        <g transform="matrix(1,0,0,0.993549,0,4.54747e-13)">
            <g transform="matrix(6.22598e-17,-1.02338,1.01678,6.26641e-17,189.099,8073.33)">
                <path d="M595.37,213.621C595.18,213.809 595.086,214.026 595.086,214.27C595.086,214.516 595.18,214.733 595.37,214.919L608.536,228.085C608.724,228.275 608.939,228.369 609.185,228.369C609.429,228.369 609.646,228.275 609.834,228.085L611.248,226.674C611.436,226.485 611.53,226.268 611.53,226.023C611.53,225.779 611.436,225.562 611.248,225.374L600.144,214.27L611.248,203.168C611.436,202.978 611.53,202.762 611.53,202.517C611.53,202.271 611.436,202.055 611.248,201.867L609.834,200.455C609.646,200.265 609.429,200.171 609.185,200.171C608.939,200.171 608.724,200.265 608.536,200.455L595.37,213.621Z" style="fill:rgb(71,72,71);fill-opacity:0.501961;fill-rule:nonzero;"/>
            </g>
        </g>
    </g>
</svg>
