<?xml version="1.0" encoding="UTF-8" standalone="no"?>
<!DOCTYPE svg PUBLIC "-//W3C//DTD SVG 1.1//EN" "http://www.w3.org/Graphics/SVG/1.1/DTD/svg11.dtd">
<svg width="100%" height="100%" viewBox="0 0 19 36" version="1.1" xmlns="http://www.w3.org/2000/svg" xmlns:xlink="http://www.w3.org/1999/xlink" xml:space="preserve" xmlns:serif="http://www.serif.com/" style="fill-rule:evenodd;clip-rule:evenodd;stroke-linejoin:round;stroke-miterlimit:1.41421;">
    <g transform="matrix(1,0,0,1,-663,-9479)">
        <g transform="matrix(1,0,0,0.993549,0,4.54747e-13)">
            <g transform="matrix(0.00133176,0,0,0.00135276,578.264,9576.1)">
                <path d="M77635,-25812L77635,-21687L75182,-21687C74286,-21687 73683,-21500 73370,-21125C73057,-20750 72901,-20187 72901,-19437L72901,-16484L77479,-16484L76870,-11859L72901,-11859L72901,0L68120,0L68120,-11859L64135,-11859L64135,-16484L68120,-16484L68120,-19890C68120,-21828 68661,-23331 69745,-24398C70828,-25466 72270,-26000 74073,-26000C75604,-26000 76792,-25937 77635,-25812Z" style="fill:white;fill-opacity:0.803922;"/>
            </g>
        </g>
    </g>
</svg>
