<?xml version="1.0" encoding="UTF-8" standalone="no"?>
<!DOCTYPE svg PUBLIC "-//W3C//DTD SVG 1.1//EN" "http://www.w3.org/Graphics/SVG/1.1/DTD/svg11.dtd">
<svg width="100%" height="100%" viewBox="0 0 32 33" version="1.1" xmlns="http://www.w3.org/2000/svg" xmlns:xlink="http://www.w3.org/1999/xlink" xml:space="preserve" xmlns:serif="http://www.serif.com/" style="fill-rule:evenodd;clip-rule:evenodd;stroke-linejoin:round;stroke-miterlimit:1.41421;">
    <g transform="matrix(1,0,0,1,-740,-9480)">
        <g transform="matrix(1,0,0,0.993549,0,4.54747e-13)">
            <g transform="matrix(0.00133176,0,0,0.00135276,565.366,9583.4)">
                <path d="M145956,-15572C146737,-16353 147128,-17296 147128,-18400C147128,-19504 146737,-20447 145956,-21228C145175,-22009 144232,-22400 143128,-22400C142024,-22400 141081,-22009 140300,-21228C139519,-20447 139128,-19504 139128,-18400C139128,-17296 139519,-16353 140300,-15572C141081,-14791 142024,-14400 143128,-14400C144232,-14400 145175,-14791 145956,-15572ZM147487,-22759C148685,-21561 149284,-20108 149284,-18400C149284,-16691 148685,-15239 147487,-14040C146289,-12843 144836,-12244 143128,-12244C141420,-12244 139967,-12843 138768,-14040C137571,-15239 136972,-16691 136972,-18400C136972,-20108 137571,-21561 138768,-22759C139967,-23957 141420,-24556 143128,-24556C144836,-24556 146289,-23957 147487,-22759ZM150550,-25822C150831,-25541 150972,-25202 150972,-24806C150972,-24410 150831,-24072 150550,-23791C150268,-23509 149930,-23369 149534,-23369C149138,-23369 148800,-23509 148519,-23791C148237,-24072 148097,-24410 148097,-24806C148097,-25202 148237,-25541 148519,-25822C148800,-26103 149138,-26244 149534,-26244C149930,-26244 150268,-26103 150550,-25822ZM144323,-28251C143599,-28246 143201,-28244 143128,-28244C143055,-28244 142657,-28246 141932,-28251C141209,-28257 140659,-28257 140284,-28251C139909,-28246 139407,-28230 138776,-28204C138146,-28178 137610,-28126 137167,-28048C136724,-27970 136352,-27874 136050,-27759C135529,-27551 135071,-27249 134675,-26853C134279,-26457 133977,-25999 133769,-25478C133654,-25176 133558,-24804 133480,-24361C133401,-23918 133349,-23381 133323,-22751C133297,-22121 133281,-21619 133276,-21244C133271,-20869 133271,-20319 133276,-19595C133281,-18871 133284,-18473 133284,-18400C133284,-18327 133281,-17928 133276,-17205C133271,-16481 133271,-15931 133276,-15556C133281,-15181 133297,-14679 133323,-14049C133349,-13419 133401,-12882 133480,-12439C133558,-11996 133654,-11624 133769,-11322C133977,-10801 134279,-10343 134675,-9947C135071,-9551 135529,-9249 136050,-9040C136352,-8926 136724,-8830 137167,-8752C137610,-8673 138146,-8621 138776,-8595C139407,-8569 139909,-8554 140284,-8549C140659,-8543 141209,-8543 141932,-8549C142657,-8554 143055,-8556 143128,-8556C143201,-8556 143599,-8554 144323,-8549C145047,-8543 145596,-8543 145972,-8549C146347,-8554 146849,-8569 147479,-8595C148110,-8621 148646,-8673 149089,-8752C149532,-8830 149904,-8926 150206,-9040C150727,-9249 151185,-9551 151581,-9947C151977,-10343 152279,-10801 152487,-11322C152602,-11624 152698,-11996 152776,-12439C152855,-12882 152907,-13419 152932,-14049C152958,-14679 152974,-15181 152979,-15556C152985,-15931 152985,-16481 152979,-17205C152974,-17928 152971,-18327 152972,-18400C152971,-18473 152974,-18871 152979,-19595C152985,-20319 152985,-20869 152979,-21244C152974,-21619 152958,-22121 152932,-22751C152907,-23381 152855,-23918 152776,-24361C152698,-24804 152602,-25176 152487,-25478C152279,-25999 151977,-26457 151581,-26853C151185,-27249 150727,-27551 150206,-27759C149904,-27874 149532,-27970 149089,-28048C148646,-28126 148110,-28178 147479,-28204C146849,-28230 146347,-28246 145972,-28251C145596,-28257 145047,-28257 144323,-28251ZM155050,-23353C155102,-22436 155128,-20785 155128,-18400C155128,-16014 155102,-14364 155050,-13447C154945,-11280 154300,-9603 153112,-8416C151925,-7228 150248,-6582 148081,-6478C147164,-6426 145513,-6400 143128,-6400C140743,-6400 139092,-6426 138175,-6478C136008,-6582 134331,-7228 133144,-8416C131956,-9603 131310,-11280 131206,-13447C131154,-14364 131128,-16014 131128,-18400C131128,-20785 131154,-22436 131206,-23353C131310,-25520 131956,-27196 133144,-28384C134331,-29572 136008,-30218 138175,-30322C139092,-30374 140743,-30400 143128,-30400C145513,-30400 147164,-30374 148081,-30322C150248,-30218 151925,-29572 153112,-28384C154300,-27196 154945,-25520 155050,-23353Z" style="fill:white;fill-opacity:0.803922;"/>
            </g>
        </g>
    </g>
</svg>
