<?xml version="1.0" encoding="UTF-8" standalone="no"?>
<!DOCTYPE svg PUBLIC "-//W3C//DTD SVG 1.1//EN" "http://www.w3.org/Graphics/SVG/1.1/DTD/svg11.dtd">
<svg width="100%" height="100%" viewBox="0 0 276 42" version="1.1" xmlns="http://www.w3.org/2000/svg" xmlns:xlink="http://www.w3.org/1999/xlink" xml:space="preserve" xmlns:serif="http://www.serif.com/" style="fill-rule:evenodd;clip-rule:evenodd;stroke-linejoin:round;stroke-miterlimit:1.41421;">
    <g transform="matrix(1,0,0,1,-537,-9573)">
        <g transform="matrix(1,0,0,0.993549,0,4.54747e-13)">
            <g transform="matrix(0.136,0,0,0.136,494.019,9648.01)">
                <g transform="matrix(4.16667,0,0,4.19372,552.18,210.651)">
                    <path d="M0,-71.191C0.703,-71.191 1.318,-70.883 1.846,-70.268C2.373,-69.653 2.637,-68.891 2.637,-67.983C2.637,-66.753 2.146,-65.382 1.165,-63.875C0.183,-62.365 -1.23,-60.791 -3.076,-59.15C-3.399,-57.509 -3.677,-55.641 -3.911,-53.546C-4.146,-51.452 -4.263,-49.072 -4.263,-46.406C-4.263,-42.304 -4.395,-38.305 -4.658,-34.409C-4.922,-30.512 -5.42,-26.85 -6.152,-23.422C-6.885,-19.995 -7.917,-16.845 -9.25,-13.974C-10.584,-11.103 -12.327,-8.634 -14.48,-6.57C-16.633,-4.503 -19.248,-2.893 -22.324,-1.736C-25.4,-0.579 -29.048,0 -33.267,0C-36.782,0 -39.917,-0.41 -42.671,-1.23C-45.425,-2.05 -47.762,-3.185 -49.68,-4.636C-51.599,-6.086 -53.064,-7.785 -54.075,-9.734C-55.085,-11.681 -55.591,-13.798 -55.591,-16.084C-55.591,-18.369 -55.107,-20.485 -54.141,-22.433C-53.174,-24.381 -51.871,-26.082 -50.229,-27.531C-48.589,-28.982 -46.677,-30.117 -44.495,-30.937C-42.313,-31.757 -39.99,-32.168 -37.529,-32.168C-37.149,-32.168 -36.76,-32.16 -36.365,-32.146C-35.969,-32.13 -35.611,-32.072 -35.288,-31.97C-34.966,-31.867 -34.695,-31.691 -34.475,-31.443C-34.255,-31.193 -34.146,-30.849 -34.146,-30.41C-34.146,-29.941 -34.314,-29.552 -34.651,-29.246C-34.988,-28.937 -35.376,-28.784 -35.815,-28.784C-36.108,-28.784 -36.394,-28.791 -36.672,-28.806C-36.951,-28.82 -37.237,-28.828 -37.529,-28.828C-39.522,-28.828 -41.412,-28.505 -43.198,-27.861C-44.985,-27.216 -46.553,-26.323 -47.9,-25.18C-49.248,-24.038 -50.317,-22.69 -51.108,-21.137C-51.899,-19.585 -52.295,-17.9 -52.295,-16.084C-52.295,-14.472 -52.002,-13.037 -51.416,-11.777C-50.83,-10.517 -50.039,-9.411 -49.043,-8.459C-48.047,-7.506 -46.897,-6.694 -45.593,-6.02C-44.29,-5.346 -42.92,-4.804 -41.484,-4.394C-40.049,-3.984 -38.591,-3.683 -37.112,-3.494C-35.633,-3.302 -34.219,-3.208 -32.871,-3.208C-29.151,-3.208 -25.943,-3.735 -23.247,-4.79C-20.552,-5.844 -18.274,-7.324 -16.414,-9.228C-14.553,-11.132 -13.052,-13.41 -11.909,-16.062C-10.767,-18.712 -9.873,-21.642 -9.229,-24.851C-8.584,-28.058 -8.152,-31.486 -7.932,-35.134C-7.712,-38.781 -7.588,-42.553 -7.559,-46.45C-7.53,-48.325 -7.456,-50.164 -7.339,-51.964C-7.222,-53.767 -7.061,-55.4 -6.855,-56.865C-8.027,-56.25 -9.316,-55.649 -10.723,-55.063C-12.129,-54.477 -13.542,-53.869 -14.963,-53.24C-16.385,-52.609 -17.769,-51.935 -19.116,-51.218C-20.464,-50.5 -21.658,-49.709 -22.698,-48.845C-23.738,-47.98 -24.573,-47.013 -25.203,-45.945C-25.833,-44.875 -26.147,-43.681 -26.147,-42.363C-26.147,-41.162 -25.943,-40.114 -25.532,-39.22C-25.122,-38.327 -24.609,-37.573 -23.994,-36.958C-23.379,-36.342 -22.705,-35.837 -21.973,-35.441C-21.241,-35.046 -20.56,-34.738 -19.929,-34.519C-19.299,-34.298 -18.758,-34.137 -18.303,-34.035C-17.849,-33.932 -17.593,-33.881 -17.534,-33.881C-17.036,-33.735 -16.699,-33.537 -16.523,-33.289C-16.348,-33.039 -16.26,-32.739 -16.26,-32.387C-16.26,-31.889 -16.407,-31.486 -16.699,-31.179C-16.992,-30.871 -17.358,-30.717 -17.798,-30.717C-17.857,-30.717 -17.981,-30.724 -18.171,-30.74C-18.362,-30.753 -18.486,-30.776 -18.545,-30.805C-19.512,-31.01 -20.625,-31.369 -21.885,-31.882C-23.145,-32.394 -24.339,-33.113 -25.466,-34.035C-26.594,-34.959 -27.547,-36.123 -28.323,-37.529C-29.099,-38.935 -29.487,-40.649 -29.487,-42.67C-29.487,-44.458 -29.048,-46.04 -28.169,-47.417C-27.29,-48.794 -26.141,-50.024 -24.719,-51.108C-23.298,-52.192 -21.716,-53.159 -19.973,-54.008C-18.23,-54.858 -16.495,-55.656 -14.766,-56.404C-13.037,-57.15 -11.411,-57.876 -9.888,-58.579C-8.365,-59.282 -7.119,-60.044 -6.152,-60.864C-5.333,-64.409 -4.38,-67.016 -3.296,-68.686C-2.212,-70.356 -1.114,-71.191 0,-71.191" style="fill:white;fill-rule:nonzero;"/>
                </g>
                <g transform="matrix(4.16667,0,0,4.19372,584.956,159.972)">
                    <path d="M0,-7.251C-0.176,-6.782 -0.389,-6.255 -0.637,-5.669C-0.886,-5.083 -1.172,-4.468 -1.494,-3.823C-1.758,-3.325 -2.029,-2.937 -2.307,-2.659C-2.586,-2.38 -2.944,-2.241 -3.384,-2.241C-3.882,-2.241 -4.278,-2.396 -4.57,-2.702C-4.863,-3.011 -5.01,-3.369 -5.01,-3.779C-5.01,-3.926 -4.995,-4.05 -4.966,-4.153C-4.937,-4.255 -4.863,-4.424 -4.746,-4.658C-3.984,-6.123 -3.421,-7.405 -3.054,-8.503C-2.688,-9.603 -2.388,-10.752 -2.153,-11.953C-2.358,-12.627 -2.505,-13.198 -2.593,-13.667C-2.681,-14.136 -2.725,-14.619 -2.725,-15.117C-2.725,-16.084 -2.52,-16.867 -2.109,-17.468C-1.699,-18.068 -1.128,-18.369 -0.396,-18.369C0.278,-18.369 0.813,-18.076 1.208,-17.49C1.604,-16.904 1.802,-16.187 1.802,-15.337C1.802,-14.868 1.758,-14.399 1.67,-13.931C1.582,-13.462 1.465,-12.876 1.318,-12.173C1.992,-10.503 2.666,-9.023 3.34,-7.734C4.014,-6.445 4.614,-5.266 5.142,-4.196C5.669,-3.127 6.101,-2.124 6.438,-1.187C6.774,-0.249 6.943,0.688 6.943,1.626C6.943,2.856 6.694,4.028 6.196,5.142C5.698,6.255 4.878,7.192 3.735,7.954C3.882,7.983 4.028,7.998 4.175,7.998L4.614,7.998C6.284,7.998 7.822,7.617 9.229,6.855C10.635,6.094 11.902,5.105 13.03,3.89C14.157,2.674 15.161,1.326 16.04,-0.153C16.919,-1.633 17.681,-3.105 18.325,-4.57C18.618,-5.244 19.028,-5.581 19.556,-5.581C20.054,-5.581 20.441,-5.405 20.72,-5.054C20.999,-4.702 21.138,-4.321 21.138,-3.911C21.138,-3.677 21.094,-3.457 21.006,-3.252C20.683,-2.461 20.266,-1.56 19.753,-0.55C19.241,0.462 18.625,1.502 17.908,2.571C17.189,3.641 16.362,4.687 15.425,5.713C14.487,6.738 13.44,7.654 12.283,8.46C11.125,9.265 9.858,9.909 8.481,10.394C7.104,10.876 5.596,11.118 3.955,11.118C1.992,11.118 0.168,10.773 -1.516,10.085C-3.201,9.396 -4.57,8.262 -5.625,6.68C-5.801,6.416 -5.889,6.138 -5.889,5.845C-5.889,5.405 -5.72,5.018 -5.383,4.681C-5.047,4.344 -4.658,4.175 -4.219,4.175C-3.75,4.175 -3.355,4.336 -3.032,4.658C-3.003,4.717 -2.9,4.812 -2.725,4.944C-2.549,5.075 -2.336,5.223 -2.087,5.384C-1.839,5.545 -1.545,5.684 -1.208,5.801C-0.872,5.918 -0.527,5.977 -0.176,5.977C0.527,5.977 1.121,5.83 1.604,5.537C2.087,5.244 2.476,4.886 2.769,4.46C3.061,4.036 3.274,3.581 3.406,3.099C3.538,2.614 3.604,2.197 3.604,1.846C3.604,1.113 3.486,0.381 3.252,-0.352C3.017,-1.084 2.717,-1.816 2.351,-2.549C1.984,-3.281 1.589,-4.035 1.165,-4.812C0.74,-5.588 0.352,-6.401 0,-7.251" style="fill:white;fill-rule:nonzero;"/>
                </g>
                <g transform="matrix(4.16667,0,0,4.19372,687.313,186.88)">
                    <path d="M0,-46.89C-0.264,-46.89 -0.645,-46.605 -1.143,-46.033C-1.641,-45.462 -2.139,-44.429 -2.637,-42.935L1.582,-42.935C1.435,-44.165 1.223,-45.132 0.945,-45.835C0.666,-46.538 0.352,-46.89 0,-46.89M-4.087,-14.019C-3.208,-15.953 -2.41,-18.04 -1.692,-20.281C-0.974,-22.523 -0.359,-24.786 0.154,-27.071C0.666,-29.356 1.062,-31.597 1.34,-33.794C1.619,-35.992 1.758,-38.013 1.758,-39.859L-3.428,-39.859C-3.838,-38.042 -4.168,-35.794 -4.417,-33.113C-4.666,-30.433 -4.79,-27.173 -4.79,-23.335C-4.79,-21.197 -4.731,-19.402 -4.614,-17.953C-4.498,-16.501 -4.322,-15.191 -4.087,-14.019M29.004,-41.397C29.004,-40.928 28.843,-40.554 28.521,-40.277C28.198,-39.997 27.802,-39.859 27.334,-39.859L5.054,-39.859L5.054,-39.375C5.054,-37.588 4.922,-35.684 4.658,-33.662C4.395,-31.641 4.036,-29.626 3.582,-27.62C3.127,-25.613 2.615,-23.658 2.043,-21.753C1.472,-19.849 0.886,-18.091 0.286,-16.48C-0.315,-14.869 -0.908,-13.47 -1.494,-12.283C-2.081,-11.097 -2.608,-10.21 -3.076,-9.624C-2.696,-8.277 -2.241,-7.024 -1.714,-5.867C-1.187,-4.709 -0.593,-3.699 0.066,-2.835C0.725,-1.97 1.435,-1.289 2.197,-0.791C2.959,-0.293 3.779,-0.044 4.658,-0.044C5.684,-0.044 6.702,-0.476 7.712,-1.341C8.723,-2.204 9.661,-3.23 10.525,-4.417C11.389,-5.603 12.151,-6.804 12.81,-8.021C13.469,-9.236 13.945,-10.21 14.238,-10.943C14.531,-11.646 15.044,-11.997 15.776,-11.997C16.274,-11.997 16.677,-11.822 16.985,-11.47C17.292,-11.119 17.446,-10.738 17.446,-10.327C17.446,-10.122 17.402,-9.917 17.314,-9.712C17.227,-9.507 17.014,-9.038 16.677,-8.306C16.34,-7.574 15.901,-6.724 15.359,-5.757C14.816,-4.79 14.187,-3.772 13.469,-2.702C12.751,-1.633 11.946,-0.66 11.052,0.219C10.158,1.098 9.199,1.831 8.174,2.417C7.148,3.003 6.064,3.296 4.922,3.296C2.9,3.296 1.083,2.636 -0.527,1.318C-2.139,0 -3.509,-1.846 -4.636,-4.219C-5.764,-6.592 -6.621,-9.405 -7.207,-12.657C-7.793,-15.909 -8.086,-19.468 -8.086,-23.335C-8.086,-24.302 -8.071,-25.437 -8.042,-26.742C-8.013,-28.044 -7.954,-29.421 -7.866,-30.872C-7.778,-32.322 -7.646,-33.816 -7.471,-35.355C-7.295,-36.892 -7.061,-38.394 -6.768,-39.859L-22.544,-39.859C-23.012,-39.859 -23.408,-39.997 -23.73,-40.277C-24.053,-40.554 -24.214,-40.928 -24.214,-41.397C-24.214,-41.866 -24.053,-42.239 -23.73,-42.517C-23.408,-42.795 -23.012,-42.935 -22.544,-42.935L-6.021,-42.935C-5.728,-43.99 -5.383,-44.956 -4.988,-45.835C-4.592,-46.714 -4.138,-47.476 -3.625,-48.12C-3.113,-48.765 -2.542,-49.27 -1.912,-49.636C-1.282,-50.002 -0.586,-50.186 0.176,-50.186C0.908,-50.186 1.545,-50.002 2.087,-49.636C2.629,-49.27 3.091,-48.765 3.472,-48.12C3.852,-47.476 4.153,-46.714 4.373,-45.835C4.592,-44.956 4.761,-43.99 4.878,-42.935L27.334,-42.935C27.802,-42.935 28.198,-42.795 28.521,-42.517C28.843,-42.239 29.004,-41.866 29.004,-41.397" style="fill:white;fill-rule:nonzero;"/>
                </g>
                <g transform="matrix(4.16667,0,0,4.19372,800.472,180.431)">
                    <path d="M0,-11.778C0,-11.221 0.073,-10.635 0.22,-10.02C0.366,-9.405 0.593,-8.797 0.901,-8.196C1.208,-7.595 1.589,-7.024 2.043,-6.483C2.498,-5.94 3.032,-5.479 3.647,-5.098C3.735,-5.714 3.779,-6.314 3.779,-6.9C3.779,-7.691 3.72,-8.497 3.604,-9.317C3.486,-10.137 3.318,-10.891 3.098,-11.581C2.878,-12.268 2.607,-12.825 2.285,-13.251C1.962,-13.674 1.582,-13.887 1.143,-13.887C0.967,-13.887 0.732,-13.756 0.439,-13.492C0.146,-13.228 0,-12.657 0,-11.778M7.515,-0.704C6.782,-0.704 6.137,-0.762 5.581,-0.88C5.142,-0.001 4.614,0.812 3.999,1.56C3.384,2.306 2.673,2.958 1.868,3.515C1.062,4.072 0.161,4.511 -0.835,4.833C-1.831,5.156 -2.916,5.317 -4.087,5.317C-5.464,5.317 -6.724,5.076 -7.866,4.591C-9.009,4.109 -10.005,3.435 -10.854,2.57C-11.705,1.706 -12.364,0.666 -12.832,-0.549C-13.301,-1.765 -13.535,-3.106 -13.535,-4.571C-13.535,-6.446 -13.199,-8.079 -12.524,-9.471C-11.851,-10.862 -11.074,-12.02 -10.195,-12.942C-9.316,-13.866 -8.438,-14.553 -7.559,-15.008C-6.68,-15.462 -6.021,-15.689 -5.581,-15.689C-5.083,-15.689 -4.709,-15.557 -4.46,-15.294C-4.212,-15.03 -4.087,-14.678 -4.087,-14.239C-4.087,-13.741 -4.241,-13.367 -4.548,-13.118C-4.856,-12.869 -5.245,-12.628 -5.713,-12.393C-6.182,-12.159 -6.68,-11.829 -7.207,-11.405C-7.734,-10.979 -8.225,-10.445 -8.679,-9.8C-9.134,-9.156 -9.507,-8.394 -9.8,-7.515C-10.093,-6.636 -10.239,-5.655 -10.239,-4.571C-10.239,-3.604 -10.093,-2.704 -9.8,-1.868C-9.507,-1.034 -9.082,-0.315 -8.525,0.285C-7.969,0.886 -7.31,1.355 -6.548,1.691C-5.786,2.029 -4.937,2.197 -3.999,2.197C-2.329,2.197 -0.945,1.809 0.154,1.033C1.252,0.256 2.094,-0.733 2.681,-1.934C0.952,-2.842 -0.469,-4.132 -1.582,-5.801C-2.696,-7.471 -3.252,-9.346 -3.252,-11.426C-3.252,-13.096 -2.85,-14.459 -2.043,-15.513C-1.238,-16.568 -0.176,-17.095 1.143,-17.095C1.934,-17.095 2.681,-16.905 3.384,-16.524C4.087,-16.143 4.709,-15.543 5.251,-14.722C5.793,-13.902 6.225,-12.847 6.548,-11.558C6.87,-10.269 7.031,-8.731 7.031,-6.944C7.031,-6.007 6.914,-5.025 6.68,-4C6.855,-3.97 7.031,-3.956 7.207,-3.956L7.778,-3.956C8.774,-3.956 9.668,-4.073 10.459,-4.307C11.25,-4.542 11.968,-4.893 12.612,-5.362C13.256,-5.831 13.835,-6.431 14.348,-7.164C14.86,-7.896 15.352,-8.746 15.82,-9.713C15.908,-9.888 16.099,-10.056 16.392,-10.217C16.684,-10.379 16.978,-10.46 17.271,-10.46C17.651,-10.46 18.01,-10.305 18.347,-9.999C18.684,-9.69 18.853,-9.288 18.853,-8.79C18.853,-8.555 18.793,-8.299 18.677,-8.02C18.56,-7.742 18.442,-7.486 18.325,-7.252C17.827,-6.373 17.249,-5.53 16.589,-4.725C15.93,-3.919 15.154,-3.215 14.26,-2.616C13.366,-2.014 12.363,-1.539 11.25,-1.187C10.136,-0.836 8.892,-0.674 7.515,-0.704" style="fill:white;fill-rule:nonzero;"/>
                </g>
                <g transform="matrix(4.16667,0,0,4.19372,908.137,124.399)">
                    <path d="M0,13.58C0.439,12.701 1.003,11.61 1.692,10.306C2.38,9.003 3.098,7.691 3.845,6.373C4.592,5.055 5.324,3.809 6.042,2.638C6.76,1.466 7.368,0.572 7.866,-0.043C8.716,-1.068 9.595,-1.801 10.503,-2.24C11.411,-2.68 12.246,-2.899 13.008,-2.899C13.77,-2.899 14.421,-2.738 14.963,-2.416C15.505,-2.094 15.952,-1.661 16.304,-1.12C16.655,-0.577 16.919,0.053 17.095,0.77C17.271,1.488 17.358,2.257 17.358,3.077C17.358,3.546 17.336,4.161 17.292,4.923C17.249,5.684 17.205,6.505 17.161,7.384C17.117,8.263 17.073,9.171 17.029,10.108C16.985,11.046 16.948,11.925 16.919,12.745C17.358,11.866 17.856,10.892 18.413,9.823C18.969,8.754 19.534,7.691 20.105,6.637C20.676,5.582 21.226,4.593 21.753,3.671C22.28,2.747 22.764,1.993 23.203,1.407C24.462,-0.321 25.642,-1.479 26.741,-2.065C27.839,-2.65 28.813,-2.943 29.663,-2.943C30.659,-2.943 31.479,-2.76 32.124,-2.394C32.768,-2.027 33.273,-1.56 33.64,-0.987C34.006,-0.417 34.262,0.221 34.409,0.924C34.556,1.627 34.629,2.301 34.629,2.945C34.629,3.941 34.556,4.981 34.409,6.065C34.262,7.149 34.189,8.438 34.189,9.933C34.189,10.548 34.218,11.163 34.277,11.778C34.336,12.393 34.46,12.935 34.651,13.404C34.841,13.873 35.141,14.254 35.552,14.547C35.962,14.84 36.519,14.986 37.222,14.986C37.983,14.986 38.73,14.788 39.463,14.393C40.195,13.997 40.898,13.477 41.572,12.833C42.246,12.188 42.883,11.456 43.484,10.636C44.084,9.815 44.633,8.995 45.132,8.175C45.63,7.354 46.069,6.571 46.45,5.823C46.831,5.077 47.138,4.439 47.373,3.912C47.52,3.59 47.725,3.341 47.988,3.165C48.252,2.989 48.544,2.901 48.867,2.901C49.365,2.901 49.768,3.085 50.076,3.45C50.383,3.817 50.537,4.205 50.537,4.615C50.537,4.82 50.493,5.025 50.405,5.23C50.288,5.465 50.054,5.956 49.702,6.702C49.351,7.45 48.882,8.3 48.296,9.251C47.709,10.204 47.028,11.207 46.252,12.262C45.476,13.316 44.619,14.291 43.682,15.184C42.744,16.078 41.733,16.809 40.649,17.382C39.565,17.952 38.423,18.238 37.222,18.238C35.932,18.238 34.885,18.011 34.08,17.558C33.273,17.103 32.629,16.495 32.146,15.733C31.663,14.972 31.333,14.093 31.157,13.097C30.981,12.101 30.894,11.06 30.894,9.976C30.894,8.541 30.966,7.216 31.113,5.999C31.26,4.784 31.333,3.839 31.333,3.165C31.333,2.433 31.267,1.876 31.135,1.495C31.003,1.114 30.842,0.844 30.652,0.683C30.461,0.521 30.278,0.434 30.103,0.419C29.927,0.404 29.795,0.396 29.707,0.396C29.004,0.396 28.264,0.785 27.488,1.561C26.711,2.338 25.913,3.37 25.093,4.659C24.272,5.948 23.43,7.413 22.566,9.054C21.702,10.694 20.83,12.364 19.951,14.063C19.453,15.001 19.035,15.777 18.699,16.393C18.362,17.008 18.04,17.491 17.732,17.843C17.424,18.194 17.124,18.443 16.831,18.59C16.538,18.736 16.216,18.809 15.864,18.809C15.102,18.809 14.524,18.546 14.128,18.018C13.733,17.491 13.535,16.803 13.535,15.953C13.535,15.514 13.55,14.928 13.579,14.195C13.608,13.463 13.638,12.657 13.667,11.778C13.696,10.899 13.74,9.991 13.799,9.054C13.857,8.116 13.901,7.216 13.931,6.351C13.959,5.487 13.989,4.718 14.019,4.044C14.047,3.37 14.063,2.857 14.063,2.506C14.063,1.744 13.931,1.195 13.667,0.858C13.403,0.521 13.096,0.352 12.744,0.352C12.421,0.352 12.063,0.47 11.667,0.704C11.272,0.938 10.811,1.392 10.283,2.066C9.873,2.594 9.353,3.362 8.723,4.374C8.093,5.384 7.427,6.505 6.724,7.735C6.021,8.966 5.324,10.226 4.636,11.515C3.948,12.804 3.354,13.961 2.856,14.986C2.241,16.217 1.626,17.059 1.011,17.513C0.396,17.967 -0.205,18.194 -0.791,18.194C-1.641,18.194 -2.271,17.937 -2.681,17.425C-3.091,16.913 -3.296,16.231 -3.296,15.382C-3.296,15.294 -3.274,14.767 -3.23,13.8C-3.186,12.833 -3.135,11.654 -3.076,10.263C-3.018,8.871 -2.952,7.384 -2.878,5.802C-2.806,4.22 -2.74,2.74 -2.681,1.363C-2.652,0.631 -2.681,-0.043 -2.769,-0.658C-2.856,-1.274 -2.974,-1.64 -3.12,-1.757C-3.355,-1.698 -3.816,-1.156 -4.504,-0.131C-5.193,0.894 -6.064,2.682 -7.119,5.23C-7.266,5.553 -7.486,5.802 -7.778,5.977C-8.071,6.153 -8.379,6.241 -8.701,6.241C-9.2,6.241 -9.595,6.073 -9.888,5.735C-10.181,5.399 -10.327,5.011 -10.327,4.571C-10.327,4.366 -10.283,4.146 -10.195,3.912C-8.877,0.777 -7.618,-1.529 -6.416,-3.009C-5.215,-4.488 -4.043,-5.229 -2.9,-5.229C-2.227,-5.229 -1.663,-5.075 -1.208,-4.767C-0.754,-4.46 -0.396,-4.064 -0.132,-3.581C0.132,-3.097 0.322,-2.548 0.439,-1.933C0.556,-1.317 0.615,-0.717 0.615,-0.131C0.615,2.476 0.549,4.864 0.417,7.032C0.286,9.2 0.146,11.383 0,13.58" style="fill:white;fill-rule:nonzero;"/>
                </g>
                <g transform="matrix(4.16667,0,0,4.19372,1125.12,188.353)">
                    <path d="M0,-32.256C0,-32.666 -0.154,-33.025 -0.461,-33.333C-0.769,-33.64 -1.128,-33.794 -1.538,-33.794C-1.949,-33.794 -2.3,-33.64 -2.593,-33.333C-2.886,-33.025 -3.032,-32.666 -3.032,-32.256C-3.032,-31.846 -2.886,-31.494 -2.593,-31.201C-2.3,-30.908 -1.949,-30.762 -1.538,-30.762C-1.128,-30.762 -0.769,-30.908 -0.461,-31.201C-0.154,-31.494 0,-31.846 0,-32.256M-4.658,-6.504C-4.658,-10.723 -4.395,-14.927 -3.867,-19.116C-3.809,-19.527 -3.625,-19.886 -3.318,-20.193C-3.01,-20.501 -2.608,-20.654 -2.109,-20.654C-1.67,-20.654 -1.304,-20.485 -1.011,-20.15C-0.718,-19.812 -0.571,-19.424 -0.571,-18.985C-0.571,-18.809 -0.608,-18.281 -0.681,-17.402C-0.754,-16.524 -0.842,-15.476 -0.945,-14.261C-1.048,-13.044 -1.136,-11.755 -1.208,-10.394C-1.282,-9.03 -1.318,-7.778 -1.318,-6.636C-1.318,-5.083 -1.165,-3.83 -0.857,-2.878C-0.549,-1.926 -0.154,-1.187 0.33,-0.659C0.813,-0.132 1.325,0.22 1.868,0.395C2.41,0.571 2.929,0.659 3.428,0.659C4.248,0.659 5.098,0.366 5.977,-0.22C6.855,-0.806 7.756,-1.626 8.679,-2.681C9.602,-3.735 10.532,-5.002 11.47,-6.482C12.407,-7.961 13.33,-9.61 14.238,-11.426C14.385,-11.719 14.59,-11.945 14.854,-12.107C15.117,-12.268 15.41,-12.349 15.732,-12.349C16.201,-12.349 16.589,-12.173 16.897,-11.821C17.205,-11.47 17.358,-11.089 17.358,-10.679C17.358,-10.386 17.299,-10.137 17.183,-9.932C16.831,-9.258 16.392,-8.438 15.864,-7.471C15.337,-6.504 14.736,-5.508 14.063,-4.483C13.388,-3.457 12.649,-2.439 11.843,-1.429C11.037,-0.417 10.18,0.491 9.272,1.296C8.364,2.102 7.412,2.754 6.416,3.252C5.42,3.75 4.409,3.999 3.384,3.999C2.065,3.999 0.908,3.721 -0.088,3.164C-1.084,2.607 -1.927,1.86 -2.615,0.923C-3.303,-0.015 -3.816,-1.12 -4.153,-2.396C-4.49,-3.669 -4.658,-5.039 -4.658,-6.504M2.461,-32.256C2.461,-31.143 2.072,-30.197 1.296,-29.421C0.52,-28.645 -0.425,-28.257 -1.538,-28.257C-2.652,-28.257 -3.597,-28.645 -4.373,-29.421C-5.149,-30.197 -5.537,-31.143 -5.537,-32.256C-5.537,-32.813 -5.435,-33.333 -5.229,-33.816C-5.025,-34.3 -4.739,-34.724 -4.373,-35.091C-4.006,-35.456 -3.582,-35.742 -3.098,-35.947C-2.615,-36.152 -2.095,-36.255 -1.538,-36.255C-0.982,-36.255 -0.461,-36.152 0.022,-35.947C0.505,-35.742 0.93,-35.456 1.296,-35.091C1.663,-34.724 1.948,-34.3 2.153,-33.816C2.358,-33.333 2.461,-32.813 2.461,-32.256" style="fill:white;fill-rule:nonzero;"/>
                </g>
                <g transform="matrix(4.16667,0,0,4.19372,1224.91,122.189)">
                    <path d="M0,14.063C0.468,13.096 1.011,12.035 1.626,10.877C2.241,9.72 2.9,8.547 3.604,7.362C4.307,6.174 5.046,4.996 5.823,3.824C6.599,2.652 7.412,1.539 8.262,0.484C9.111,-0.541 9.968,-1.281 10.833,-1.736C11.696,-2.189 12.509,-2.416 13.271,-2.416C14.794,-2.416 15.923,-1.86 16.655,-0.747C17.387,0.367 17.754,1.744 17.754,3.384C17.754,3.765 17.732,4.227 17.688,4.768C17.644,5.311 17.6,5.889 17.556,6.504C17.512,7.12 17.468,7.743 17.424,8.372C17.38,9.002 17.358,9.595 17.358,10.152C17.358,10.855 17.395,11.529 17.468,12.173C17.541,12.818 17.681,13.381 17.886,13.866C18.09,14.348 18.384,14.73 18.765,15.008C19.145,15.287 19.644,15.425 20.259,15.425C21.372,15.425 22.456,14.994 23.511,14.129C24.565,13.265 25.539,12.239 26.433,11.053C27.327,9.866 28.103,8.658 28.762,7.427C29.421,6.197 29.912,5.201 30.234,4.439C30.381,4.117 30.593,3.868 30.872,3.692C31.15,3.516 31.45,3.428 31.772,3.428C32.271,3.428 32.673,3.612 32.981,3.977C33.289,4.344 33.442,4.732 33.442,5.142C33.442,5.347 33.398,5.552 33.311,5.757C33.193,5.992 32.959,6.475 32.607,7.208C32.256,7.94 31.794,8.783 31.223,9.735C30.652,10.687 29.985,11.698 29.224,12.766C28.461,13.836 27.62,14.81 26.697,15.689C25.774,16.568 24.778,17.3 23.708,17.886C22.639,18.472 21.518,18.765 20.347,18.765C19.028,18.765 17.958,18.508 17.139,17.997C16.318,17.484 15.673,16.809 15.205,15.975C14.736,15.139 14.421,14.217 14.26,13.206C14.099,12.196 14.019,11.177 14.019,10.152C14.019,9.712 14.041,9.214 14.084,8.658C14.128,8.101 14.187,7.515 14.26,6.9C14.333,6.285 14.392,5.669 14.436,5.054C14.48,4.439 14.502,3.853 14.502,3.296C14.502,2.359 14.355,1.722 14.063,1.385C13.77,1.048 13.506,0.879 13.271,0.879C12.803,0.879 12.268,1.151 11.667,1.692C11.067,2.235 10.437,2.945 9.778,3.824C9.119,4.703 8.444,5.692 7.756,6.79C7.068,7.889 6.423,8.98 5.823,10.064C5.222,11.148 4.665,12.181 4.153,13.163C3.64,14.144 3.237,14.957 2.944,15.601C2.358,16.832 1.772,17.66 1.187,18.084C0.6,18.508 0,18.721 -0.615,18.721C-1.465,18.721 -2.146,18.464 -2.659,17.952C-3.171,17.44 -3.428,16.714 -3.428,15.777C-3.428,15.572 -3.399,15.169 -3.34,14.569C-3.281,13.968 -3.208,13.251 -3.12,12.415C-3.032,11.581 -2.944,10.679 -2.856,9.712C-2.769,8.746 -2.681,7.787 -2.593,6.834C-2.505,5.882 -2.432,4.996 -2.373,4.175C-2.314,3.355 -2.285,2.667 -2.285,2.11C-2.285,1.377 -2.314,0.674 -2.373,0C-2.432,-0.673 -2.549,-1.083 -2.725,-1.23C-2.988,-1.142 -3.457,-0.593 -4.131,0.418C-4.805,1.428 -5.669,3.209 -6.724,5.757C-6.871,6.08 -7.09,6.329 -7.383,6.504C-7.676,6.68 -7.983,6.768 -8.306,6.768C-8.804,6.768 -9.2,6.6 -9.492,6.262C-9.785,5.926 -9.932,5.538 -9.932,5.098C-9.932,4.893 -9.888,4.673 -9.8,4.439C-8.481,1.304 -7.244,-1.002 -6.086,-2.482C-4.929,-3.961 -3.779,-4.702 -2.637,-4.702C-1.963,-4.702 -1.392,-4.533 -0.923,-4.197C-0.455,-3.859 -0.081,-3.413 0.198,-2.856C0.476,-2.299 0.681,-1.684 0.813,-1.01C0.945,-0.336 1.011,0.352 1.011,1.055C1.011,1.583 0.974,2.403 0.901,3.516C0.828,4.629 0.732,5.823 0.615,7.098C0.498,8.372 0.388,9.639 0.286,10.899C0.183,12.159 0.088,13.213 0,14.063" style="fill:white;fill-rule:nonzero;"/>
                </g>
                <g transform="matrix(4.16667,0,0,4.19372,1492.61,162.551)">
                    <path d="M0,-3.867C-0.117,-3.633 -0.359,-3.141 -0.725,-2.395C-1.092,-1.647 -1.56,-0.791 -2.131,0.176C-2.703,1.143 -3.369,2.154 -4.131,3.208C-4.893,4.263 -5.742,5.23 -6.68,6.109C-7.618,6.987 -8.628,7.712 -9.712,8.284C-10.796,8.855 -11.938,9.141 -13.14,9.141C-14.839,9.141 -16.267,8.599 -17.424,7.515C-18.582,6.431 -19.424,5.069 -19.951,3.428C-20.947,5.098 -22.134,6.424 -23.511,7.405C-24.888,8.387 -26.265,8.877 -27.642,8.877C-28.726,8.877 -29.707,8.679 -30.586,8.284C-31.465,7.888 -32.212,7.332 -32.827,6.614C-33.442,5.897 -33.919,5.054 -34.255,4.087C-34.592,3.12 -34.761,2.066 -34.761,0.923C-34.761,-1.362 -34.373,-3.376 -33.596,-5.12C-32.82,-6.862 -31.832,-8.32 -30.63,-9.492C-29.429,-10.664 -28.103,-11.543 -26.653,-12.129C-25.203,-12.715 -23.804,-13.008 -22.456,-13.008C-21.548,-13.008 -20.713,-12.883 -19.951,-12.634C-19.189,-12.385 -18.538,-12.114 -17.996,-11.821C-17.454,-11.528 -17.036,-11.257 -16.743,-11.009C-16.451,-10.759 -16.289,-10.62 -16.26,-10.591C-15.938,-10.21 -15.776,-9.814 -15.776,-9.404C-15.776,-8.965 -15.938,-8.576 -16.26,-8.239C-16.583,-7.902 -16.963,-7.734 -17.402,-7.734C-17.871,-7.734 -18.267,-7.895 -18.589,-8.218C-18.648,-8.276 -18.78,-8.386 -18.984,-8.548C-19.189,-8.708 -19.468,-8.877 -19.819,-9.053C-20.171,-9.228 -20.588,-9.382 -21.072,-9.514C-21.555,-9.645 -22.104,-9.712 -22.72,-9.712C-23.628,-9.712 -24.595,-9.507 -25.62,-9.096C-26.646,-8.686 -27.583,-8.049 -28.433,-7.184C-29.283,-6.32 -29.993,-5.236 -30.564,-3.932C-31.135,-2.629 -31.421,-1.084 -31.421,0.703C-31.421,1.26 -31.362,1.823 -31.245,2.396C-31.128,2.966 -30.923,3.487 -30.63,3.955C-30.337,4.424 -29.942,4.805 -29.443,5.098C-28.945,5.391 -28.33,5.537 -27.598,5.537C-27.07,5.537 -26.462,5.362 -25.774,5.01C-25.086,4.658 -24.427,4.116 -23.796,3.384C-23.167,2.652 -22.595,1.729 -22.083,0.615C-21.57,-0.498 -21.211,-1.816 -21.006,-3.34C-20.947,-3.75 -20.757,-4.094 -20.435,-4.372C-20.112,-4.65 -19.731,-4.79 -19.292,-4.79C-18.882,-4.79 -18.523,-4.629 -18.215,-4.306C-17.908,-3.984 -17.739,-3.618 -17.71,-3.208C-17.681,-2.651 -17.622,-1.868 -17.534,-0.856C-17.446,0.154 -17.249,1.157 -16.941,2.154C-16.633,3.15 -16.172,4.014 -15.557,4.746C-14.941,5.479 -14.092,5.845 -13.008,5.845C-12.305,5.845 -11.609,5.654 -10.92,5.274C-10.232,4.893 -9.558,4.388 -8.899,3.757C-8.24,3.128 -7.61,2.41 -7.009,1.605C-6.409,0.799 -5.86,-0.014 -5.361,-0.835C-4.863,-1.655 -4.424,-2.446 -4.043,-3.208C-3.663,-3.97 -3.34,-4.629 -3.076,-5.185C-2.93,-5.508 -2.718,-5.757 -2.439,-5.932C-2.161,-6.108 -1.861,-6.196 -1.538,-6.196C-1.04,-6.196 -0.637,-6.013 -0.33,-5.647C-0.022,-5.28 0.132,-4.892 0.132,-4.482C0.132,-4.277 0.088,-4.072 0,-3.867" style="fill:white;fill-rule:nonzero;"/>
                </g>
                <g transform="matrix(4.16667,0,0,4.19372,1818.35,197.754)">
                    <path d="M0,-63.809C-0.235,-63.809 -0.549,-63.684 -0.945,-63.436C-1.34,-63.186 -1.773,-62.805 -2.241,-62.293C-2.71,-61.78 -3.179,-61.128 -3.647,-60.337C-4.116,-59.546 -4.526,-58.609 -4.878,-57.525C-3.911,-57.964 -3.062,-58.536 -2.329,-59.239C-1.597,-59.942 -1.011,-60.637 -0.571,-61.327C-0.132,-62.014 0.146,-62.6 0.264,-63.084C0.38,-63.567 0.292,-63.809 0,-63.809M3.647,-63.765C3.647,-62.74 3.369,-61.729 2.813,-60.733C2.256,-59.737 1.538,-58.814 0.659,-57.964C-0.22,-57.115 -1.208,-56.345 -2.307,-55.657C-3.406,-54.968 -4.498,-54.405 -5.581,-53.965C-5.874,-52.735 -6.108,-51.365 -6.284,-49.856C-6.46,-48.347 -6.577,-46.67 -6.636,-44.825C-6.695,-42.539 -6.783,-40.269 -6.899,-38.013C-7.017,-35.757 -7.192,-33.516 -7.427,-31.289C-5.054,-31.377 -2.461,-31.472 0.352,-31.575C3.164,-31.677 6.108,-31.773 9.185,-31.861C12.261,-31.949 15.417,-32.022 18.655,-32.08C21.892,-32.139 25.122,-32.168 28.345,-32.168C28.579,-36.856 29.092,-41.016 29.883,-44.649C30.674,-48.282 31.707,-51.343 32.981,-53.833C34.255,-56.324 35.756,-58.213 37.485,-59.502C39.214,-60.791 41.133,-61.436 43.242,-61.436C43.594,-61.436 44.026,-61.407 44.539,-61.348C45.051,-61.289 45.556,-61.179 46.055,-61.018C46.553,-60.857 46.978,-60.623 47.329,-60.315C47.681,-60.008 47.856,-59.59 47.856,-59.063C47.856,-58.916 47.841,-58.778 47.813,-58.645C47.783,-58.514 47.725,-58.374 47.637,-58.228C47.314,-57.701 46.875,-57.437 46.318,-57.437C46.083,-57.437 45.901,-57.473 45.769,-57.547C45.637,-57.62 45.476,-57.693 45.286,-57.766C45.095,-57.839 44.853,-57.913 44.561,-57.987C44.268,-58.059 43.857,-58.096 43.33,-58.096C42.891,-58.096 42.326,-58.015 41.638,-57.854C40.95,-57.693 40.21,-57.32 39.419,-56.734C38.628,-56.148 37.815,-55.29 36.98,-54.163C36.145,-53.035 35.369,-51.511 34.651,-49.592C33.933,-47.673 33.303,-45.293 32.761,-42.452C32.219,-39.61 31.86,-36.182 31.685,-32.168C33.618,-32.139 35.522,-32.11 37.397,-32.08C39.272,-32.051 41.118,-32.007 42.935,-31.949C43.433,-31.949 43.82,-31.78 44.099,-31.444C44.377,-31.106 44.517,-30.704 44.517,-30.235C44.517,-29.766 44.355,-29.385 44.033,-29.092C43.71,-28.799 43.33,-28.653 42.891,-28.653C42.304,-28.653 41.697,-28.66 41.067,-28.674C40.437,-28.689 39.689,-28.711 38.826,-28.741C37.961,-28.77 36.943,-28.799 35.771,-28.829C34.6,-28.858 33.208,-28.872 31.597,-28.872C31.567,-28.404 31.553,-27.935 31.553,-27.466L31.553,-26.016C31.553,-22.793 31.677,-19.908 31.926,-17.359C32.175,-14.81 32.482,-12.554 32.849,-10.591C33.215,-8.628 33.618,-6.951 34.058,-5.559C34.497,-4.167 34.907,-3.025 35.288,-2.131C35.668,-1.238 36.108,-0.367 36.606,0.483C36.811,0.776 36.914,1.098 36.914,1.45C36.914,1.889 36.753,2.277 36.431,2.615C36.108,2.951 35.712,3.12 35.244,3.12C34.688,3.12 34.248,2.885 33.926,2.417C33.867,2.329 33.537,1.757 32.937,0.703C32.336,-0.352 31.685,-2.014 30.981,-4.286C30.278,-6.555 29.641,-9.471 29.07,-13.03C28.499,-16.59 28.213,-20.918 28.213,-26.016L28.213,-28.872C24.961,-28.872 21.694,-28.843 18.413,-28.785C15.132,-28.726 11.946,-28.653 8.855,-28.565C5.764,-28.477 2.805,-28.381 -0.022,-28.28C-2.85,-28.176 -5.449,-28.081 -7.822,-27.994C-8.379,-23.921 -9.236,-20.083 -10.393,-16.48C-11.551,-12.876 -13.206,-9.719 -15.359,-7.01C-17.512,-4.299 -20.259,-2.161 -23.599,-0.594C-26.938,0.973 -31.055,1.757 -35.947,1.757C-38.525,1.757 -41.023,1.486 -43.44,0.945C-45.857,0.402 -48.105,-0.359 -50.186,-1.34C-52.266,-2.322 -54.141,-3.501 -55.811,-4.878C-57.48,-6.255 -58.843,-7.764 -59.897,-9.405C-60.073,-9.668 -60.161,-9.961 -60.161,-10.284C-60.161,-10.723 -60.007,-11.111 -59.7,-11.448C-59.392,-11.785 -58.99,-11.954 -58.491,-11.954C-58.228,-11.954 -57.964,-11.887 -57.7,-11.756C-57.437,-11.623 -57.232,-11.441 -57.085,-11.206C-56.177,-9.771 -54.998,-8.467 -53.547,-7.295C-52.097,-6.123 -50.449,-5.113 -48.604,-4.263C-46.758,-3.413 -44.758,-2.754 -42.605,-2.286C-40.452,-1.817 -38.218,-1.582 -35.903,-1.582C-31.597,-1.582 -27.979,-2.264 -25.049,-3.625C-22.12,-4.989 -19.725,-6.856 -17.864,-9.229C-16.003,-11.602 -14.568,-14.377 -13.557,-17.557C-12.546,-20.735 -11.792,-24.156 -11.294,-27.818C-14.106,-27.671 -16.333,-27.554 -17.974,-27.466C-19.615,-27.378 -20.464,-27.334 -20.522,-27.334C-20.962,-27.334 -21.365,-27.473 -21.731,-27.752C-22.098,-28.03 -22.28,-28.418 -22.28,-28.916C-22.28,-29.385 -22.142,-29.781 -21.863,-30.103C-21.584,-30.425 -21.211,-30.616 -20.742,-30.674C-20.684,-30.674 -19.775,-30.718 -18.018,-30.806C-16.26,-30.894 -13.887,-31.011 -10.898,-31.158C-10.664,-33.413 -10.481,-35.691 -10.349,-37.991C-10.217,-40.29 -10.093,-42.613 -9.976,-44.956C-9.917,-46.451 -9.807,-47.893 -9.646,-49.286C-9.485,-50.676 -9.288,-51.944 -9.053,-53.086C-9.727,-52.94 -10.481,-52.815 -11.316,-52.713C-12.151,-52.61 -12.979,-52.559 -13.799,-52.559C-16.377,-52.559 -18.912,-52.764 -21.401,-53.174C-23.892,-53.584 -26.389,-54.032 -28.894,-54.514C-31.399,-54.998 -33.919,-55.445 -36.453,-55.855C-38.987,-56.265 -41.572,-56.47 -44.209,-56.47C-46.377,-56.47 -48.406,-56.243 -50.295,-55.789C-52.185,-55.334 -53.833,-54.639 -55.239,-53.702C-56.646,-52.764 -57.751,-51.584 -58.557,-50.164C-59.363,-48.743 -59.766,-47.066 -59.766,-45.132C-59.766,-43.902 -59.546,-42.818 -59.106,-41.88C-58.667,-40.943 -58.169,-40.152 -57.612,-39.507C-57.056,-38.863 -56.521,-38.357 -56.008,-37.991C-55.496,-37.624 -55.167,-37.398 -55.02,-37.31C-54.492,-36.929 -54.229,-36.446 -54.229,-35.86C-54.229,-35.391 -54.375,-35.002 -54.668,-34.696C-54.961,-34.387 -55.327,-34.234 -55.767,-34.234C-55.972,-34.234 -56.169,-34.27 -56.36,-34.344C-56.551,-34.416 -56.719,-34.497 -56.865,-34.585C-57.54,-34.996 -58.243,-35.523 -58.975,-36.167C-59.707,-36.812 -60.381,-37.58 -60.996,-38.475C-61.611,-39.368 -62.117,-40.372 -62.512,-41.485C-62.908,-42.598 -63.105,-43.814 -63.105,-45.132C-63.105,-47.71 -62.542,-49.929 -61.414,-51.789C-60.286,-53.65 -58.814,-55.174 -56.997,-56.36C-55.181,-57.547 -53.152,-58.418 -50.911,-58.975C-48.669,-59.532 -46.421,-59.81 -44.165,-59.81C-41.616,-59.81 -39.089,-59.597 -36.584,-59.172C-34.08,-58.747 -31.568,-58.287 -29.048,-57.788C-26.528,-57.29 -24.001,-56.829 -21.467,-56.405C-18.934,-55.979 -16.348,-55.767 -13.711,-55.767C-12.656,-55.767 -11.705,-55.803 -10.854,-55.877C-10.005,-55.95 -9.2,-56.104 -8.438,-56.338C-7.91,-58.184 -7.302,-59.773 -6.614,-61.106C-5.926,-62.439 -5.193,-63.538 -4.417,-64.403C-3.641,-65.266 -2.856,-65.904 -2.065,-66.314C-1.274,-66.724 -0.513,-66.929 0.22,-66.929C1.187,-66.929 2,-66.636 2.659,-66.05C3.318,-65.464 3.647,-64.703 3.647,-63.765" style="fill:white;fill-rule:nonzero;"/>
                </g>
                <g transform="matrix(4.16667,0,0,4.19372,2147.94,162.551)">
                    <path d="M0,-3.867C-0.117,-3.633 -0.359,-3.141 -0.725,-2.395C-1.092,-1.647 -1.56,-0.791 -2.131,0.176C-2.703,1.143 -3.369,2.154 -4.131,3.208C-4.893,4.263 -5.742,5.23 -6.68,6.109C-7.618,6.987 -8.628,7.712 -9.712,8.284C-10.796,8.855 -11.938,9.141 -13.14,9.141C-14.839,9.141 -16.267,8.599 -17.424,7.515C-18.582,6.431 -19.424,5.069 -19.951,3.428C-20.947,5.098 -22.134,6.424 -23.511,7.405C-24.888,8.387 -26.265,8.877 -27.642,8.877C-28.726,8.877 -29.707,8.679 -30.586,8.284C-31.465,7.888 -32.212,7.332 -32.827,6.614C-33.442,5.897 -33.919,5.054 -34.255,4.087C-34.592,3.12 -34.761,2.066 -34.761,0.923C-34.761,-1.362 -34.373,-3.376 -33.596,-5.12C-32.82,-6.862 -31.832,-8.32 -30.63,-9.492C-29.429,-10.664 -28.103,-11.543 -26.653,-12.129C-25.203,-12.715 -23.804,-13.008 -22.456,-13.008C-21.548,-13.008 -20.713,-12.883 -19.951,-12.634C-19.189,-12.385 -18.538,-12.114 -17.996,-11.821C-17.454,-11.528 -17.036,-11.257 -16.743,-11.009C-16.451,-10.759 -16.289,-10.62 -16.26,-10.591C-15.938,-10.21 -15.776,-9.814 -15.776,-9.404C-15.776,-8.965 -15.938,-8.576 -16.26,-8.239C-16.583,-7.902 -16.963,-7.734 -17.402,-7.734C-17.871,-7.734 -18.267,-7.895 -18.589,-8.218C-18.648,-8.276 -18.78,-8.386 -18.984,-8.548C-19.189,-8.708 -19.468,-8.877 -19.819,-9.053C-20.171,-9.228 -20.588,-9.382 -21.072,-9.514C-21.555,-9.645 -22.104,-9.712 -22.72,-9.712C-23.628,-9.712 -24.595,-9.507 -25.62,-9.096C-26.646,-8.686 -27.583,-8.049 -28.433,-7.184C-29.283,-6.32 -29.993,-5.236 -30.564,-3.932C-31.135,-2.629 -31.421,-1.084 -31.421,0.703C-31.421,1.26 -31.362,1.823 -31.245,2.396C-31.128,2.966 -30.923,3.487 -30.63,3.955C-30.337,4.424 -29.942,4.805 -29.443,5.098C-28.945,5.391 -28.33,5.537 -27.598,5.537C-27.07,5.537 -26.462,5.362 -25.774,5.01C-25.086,4.658 -24.427,4.116 -23.796,3.384C-23.167,2.652 -22.595,1.729 -22.083,0.615C-21.57,-0.498 -21.211,-1.816 -21.006,-3.34C-20.947,-3.75 -20.757,-4.094 -20.435,-4.372C-20.112,-4.65 -19.731,-4.79 -19.292,-4.79C-18.882,-4.79 -18.523,-4.629 -18.215,-4.306C-17.908,-3.984 -17.739,-3.618 -17.71,-3.208C-17.681,-2.651 -17.622,-1.868 -17.534,-0.856C-17.446,0.154 -17.249,1.157 -16.941,2.154C-16.633,3.15 -16.172,4.014 -15.557,4.746C-14.941,5.479 -14.092,5.845 -13.008,5.845C-12.305,5.845 -11.609,5.654 -10.92,5.274C-10.232,4.893 -9.558,4.388 -8.899,3.757C-8.24,3.128 -7.61,2.41 -7.009,1.605C-6.409,0.799 -5.86,-0.014 -5.361,-0.835C-4.863,-1.655 -4.424,-2.446 -4.043,-3.208C-3.663,-3.97 -3.34,-4.629 -3.076,-5.185C-2.93,-5.508 -2.718,-5.757 -2.439,-5.932C-2.161,-6.108 -1.861,-6.196 -1.538,-6.196C-1.04,-6.196 -0.637,-6.013 -0.33,-5.647C-0.022,-5.28 0.132,-4.892 0.132,-4.482C0.132,-4.277 0.088,-4.072 0,-3.867" style="fill:white;fill-rule:nonzero;"/>
                </g>
                <g transform="matrix(4.16667,0,0,4.19372,2154.9,188.353)">
                    <path d="M0,-32.256C0,-32.666 -0.154,-33.025 -0.461,-33.333C-0.769,-33.64 -1.128,-33.794 -1.538,-33.794C-1.949,-33.794 -2.3,-33.64 -2.593,-33.333C-2.886,-33.025 -3.032,-32.666 -3.032,-32.256C-3.032,-31.846 -2.886,-31.494 -2.593,-31.201C-2.3,-30.908 -1.949,-30.762 -1.538,-30.762C-1.128,-30.762 -0.769,-30.908 -0.461,-31.201C-0.154,-31.494 0,-31.846 0,-32.256M-4.658,-6.504C-4.658,-10.723 -4.395,-14.927 -3.867,-19.116C-3.809,-19.527 -3.625,-19.886 -3.318,-20.193C-3.01,-20.501 -2.608,-20.654 -2.109,-20.654C-1.67,-20.654 -1.304,-20.485 -1.011,-20.15C-0.718,-19.812 -0.571,-19.424 -0.571,-18.985C-0.571,-18.809 -0.608,-18.281 -0.681,-17.402C-0.754,-16.524 -0.842,-15.476 -0.945,-14.261C-1.048,-13.044 -1.136,-11.755 -1.208,-10.394C-1.282,-9.03 -1.318,-7.778 -1.318,-6.636C-1.318,-5.083 -1.165,-3.83 -0.857,-2.878C-0.549,-1.926 -0.154,-1.187 0.33,-0.659C0.813,-0.132 1.325,0.22 1.868,0.395C2.41,0.571 2.929,0.659 3.428,0.659C4.248,0.659 5.098,0.366 5.977,-0.22C6.855,-0.806 7.756,-1.626 8.679,-2.681C9.602,-3.735 10.532,-5.002 11.47,-6.482C12.407,-7.961 13.33,-9.61 14.238,-11.426C14.385,-11.719 14.59,-11.945 14.854,-12.107C15.117,-12.268 15.41,-12.349 15.732,-12.349C16.201,-12.349 16.589,-12.173 16.897,-11.821C17.205,-11.47 17.358,-11.089 17.358,-10.679C17.358,-10.386 17.299,-10.137 17.183,-9.932C16.831,-9.258 16.392,-8.438 15.864,-7.471C15.337,-6.504 14.736,-5.508 14.063,-4.483C13.388,-3.457 12.649,-2.439 11.843,-1.429C11.037,-0.417 10.18,0.491 9.272,1.296C8.364,2.102 7.412,2.754 6.416,3.252C5.42,3.75 4.409,3.999 3.384,3.999C2.065,3.999 0.908,3.721 -0.088,3.164C-1.084,2.607 -1.927,1.86 -2.615,0.923C-3.303,-0.015 -3.816,-1.12 -4.153,-2.396C-4.49,-3.669 -4.658,-5.039 -4.658,-6.504M2.461,-32.256C2.461,-31.143 2.072,-30.197 1.296,-29.421C0.52,-28.645 -0.425,-28.257 -1.538,-28.257C-2.652,-28.257 -3.597,-28.645 -4.373,-29.421C-5.149,-30.197 -5.537,-31.143 -5.537,-32.256C-5.537,-32.813 -5.435,-33.333 -5.229,-33.816C-5.025,-34.3 -4.739,-34.724 -4.373,-35.091C-4.006,-35.456 -3.582,-35.742 -3.098,-35.947C-2.615,-36.152 -2.095,-36.255 -1.538,-36.255C-0.982,-36.255 -0.461,-36.152 0.022,-35.947C0.505,-35.742 0.93,-35.456 1.296,-35.091C1.663,-34.724 1.948,-34.3 2.153,-33.816C2.358,-33.333 2.461,-32.813 2.461,-32.256" style="fill:white;fill-rule:nonzero;"/>
                </g>
                <g transform="matrix(4.16667,0,0,4.19372,2221,172.135)">
                    <path d="M0,-15.205C0,-15.41 -0.007,-15.681 -0.022,-16.018C-0.037,-16.354 -0.066,-16.684 -0.11,-17.007C-0.154,-17.329 -0.213,-17.607 -0.286,-17.842C-0.359,-18.076 -0.439,-18.193 -0.527,-18.193C-0.615,-18.193 -0.725,-18.083 -0.857,-17.864C-0.989,-17.643 -1.128,-17.38 -1.274,-17.073C-1.421,-16.765 -1.553,-16.435 -1.67,-16.084C-1.787,-15.732 -1.875,-15.439 -1.934,-15.205L0,-15.205ZM2.944,-11.953C2.827,-11.162 2.681,-10.422 2.505,-9.733C2.329,-9.045 2.16,-8.444 2,-7.933C1.838,-7.419 1.699,-7.002 1.582,-6.68C1.465,-6.357 1.391,-6.182 1.362,-6.152C1.069,-5.478 0.556,-5.142 -0.176,-5.142C-0.586,-5.142 -0.967,-5.296 -1.318,-5.602C-1.67,-5.911 -1.846,-6.299 -1.846,-6.767C-1.846,-6.943 -1.817,-7.075 -1.758,-7.163C-1.699,-7.251 -1.611,-7.427 -1.494,-7.69C-1.377,-7.954 -1.23,-8.393 -1.055,-9.009C-0.879,-9.624 -0.659,-10.576 -0.396,-11.865C-0.894,-11.865 -1.406,-11.88 -1.934,-11.909C-2.461,-11.938 -2.952,-12.041 -3.406,-12.217C-3.86,-12.392 -4.233,-12.671 -4.526,-13.052C-4.819,-13.433 -4.966,-13.96 -4.966,-14.634C-4.966,-15.132 -4.827,-15.806 -4.548,-16.655C-4.27,-17.505 -3.896,-18.34 -3.428,-19.16C-2.959,-19.98 -2.432,-20.69 -1.846,-21.292C-1.26,-21.892 -0.674,-22.192 -0.088,-22.192C0.586,-22.192 1.135,-21.943 1.56,-21.445C1.984,-20.947 2.314,-20.339 2.549,-19.622C2.783,-18.903 2.951,-18.149 3.054,-17.358C3.157,-16.567 3.208,-15.879 3.208,-15.293C3.706,-15.293 4.197,-15.3 4.68,-15.315C5.164,-15.329 5.625,-15.337 6.064,-15.337C7.734,-15.337 9.009,-14.971 9.888,-14.238C10.767,-13.506 11.206,-12.305 11.206,-10.635C11.206,-9.961 11.162,-9.258 11.074,-8.525C10.986,-7.793 10.883,-7.038 10.767,-6.263C10.649,-5.485 10.547,-4.717 10.459,-3.955C10.371,-3.193 10.327,-2.446 10.327,-1.714C10.327,-0.659 10.474,0.213 10.767,0.901C11.059,1.59 11.426,2.139 11.865,2.549C12.305,2.959 12.773,3.245 13.271,3.405C13.77,3.567 14.223,3.648 14.634,3.648C15.893,3.648 17.08,3.237 18.193,2.417C19.307,1.597 20.332,0.608 21.27,-0.55C22.207,-1.706 23.049,-2.93 23.796,-4.219C24.543,-5.508 25.166,-6.636 25.664,-7.602C25.811,-7.866 26.016,-8.071 26.279,-8.218C26.543,-8.364 26.821,-8.437 27.114,-8.437C27.642,-8.437 28.052,-8.268 28.345,-7.933C28.637,-7.595 28.784,-7.222 28.784,-6.811C28.784,-6.518 28.725,-6.255 28.608,-6.02C27.934,-4.819 27.151,-3.464 26.257,-1.956C25.363,-0.446 24.346,0.967 23.203,2.285C22.061,3.604 20.779,4.717 19.358,5.625C17.937,6.533 16.376,6.987 14.678,6.987C13.623,6.987 12.627,6.79 11.689,6.394C10.751,5.999 9.938,5.427 9.25,4.681C8.562,3.933 8.013,3.011 7.603,1.911C7.192,0.814 6.987,-0.425 6.987,-1.802C6.987,-3.267 7.134,-4.724 7.427,-6.175C7.719,-7.624 7.866,-9.009 7.866,-10.327C7.866,-10.884 7.741,-11.301 7.493,-11.579C7.244,-11.857 6.694,-11.997 5.845,-11.997L4.504,-11.997C4.021,-11.997 3.5,-11.982 2.944,-11.953" style="fill:white;fill-rule:nonzero;"/>
                </g>
            </g>
        </g>
    </g>
</svg>
