<?xml version="1.0" encoding="UTF-8" standalone="no"?>
<!DOCTYPE svg PUBLIC "-//W3C//DTD SVG 1.1//EN" "http://www.w3.org/Graphics/SVG/1.1/DTD/svg11.dtd">
<svg width="100%" height="100%" viewBox="0 0 41 24" version="1.1" xmlns="http://www.w3.org/2000/svg" xmlns:xlink="http://www.w3.org/1999/xlink" xml:space="preserve" xmlns:serif="http://www.serif.com/" style="fill-rule:evenodd;clip-rule:evenodd;stroke-linejoin:round;stroke-miterlimit:1.41421;">
    <g transform="matrix(1,0,0,1,-565,-9485)">
        <g transform="matrix(1,0,0,0.993549,0,4.54747e-13)">
            <g transform="matrix(0.00133176,0,0,0.00135276,565.366,9582.1)">
                <path d="M29969,-24764C30208,-24097 29427,-22566 27625,-20170C27375,-19837 27037,-19394 26610,-18842C26193,-18311 25906,-17936 25750,-17717C25594,-17498 25435,-17240 25274,-16944C25112,-16647 25050,-16428 25086,-16287C25122,-16146 25190,-15967 25289,-15748C25388,-15529 25557,-15306 25797,-15077C26037,-14848 26334,-14571 26688,-14248C26729,-14228 26755,-14207 26766,-14186C28235,-12821 29229,-11670 29750,-10733C29782,-10681 29816,-10616 29852,-10537C29888,-10459 29924,-10321 29961,-10123C29998,-9925 29995,-9748 29953,-9592C29912,-9436 29781,-9293 29563,-9162C29344,-9032 29037,-8967 28641,-8967L24641,-8905C24391,-8852 24099,-8879 23766,-8983C23432,-9087 23162,-9202 22953,-9326L22641,-9514C22328,-9733 21964,-10066 21547,-10514C21130,-10962 20774,-11366 20477,-11725C20180,-12084 19862,-12387 19524,-12631C19185,-12876 18891,-12957 18641,-12874C18609,-12863 18568,-12845 18516,-12819C18464,-12793 18375,-12717 18250,-12592C18125,-12467 18014,-12314 17914,-12131C17816,-11949 17727,-11678 17649,-11319C17571,-10959 17537,-10556 17547,-10108C17547,-9952 17529,-9808 17493,-9678C17456,-9548 17417,-9452 17375,-9389L17313,-9311C17125,-9113 16849,-8998 16485,-8967L14688,-8967C13948,-8926 13188,-9011 12407,-9225C11625,-9438 10940,-9715 10352,-10053C9763,-10392 9227,-10735 8743,-11084C8258,-11433 7891,-11733 7641,-11983L7250,-12358C7146,-12462 7003,-12618 6821,-12826C6638,-13035 6266,-13509 5703,-14248C5141,-14988 4589,-15774 4047,-16608C3505,-17441 2868,-18540 2133,-19905C1399,-21269 719,-22686 94,-24154C32,-24321 0,-24462 0,-24576C0,-24691 16,-24775 47,-24826L110,-24920C266,-25118 563,-25217 1000,-25217L5282,-25248C5406,-25227 5526,-25193 5641,-25147C5756,-25100 5839,-25055 5891,-25014L5969,-24967C6136,-24852 6261,-24686 6344,-24467C6552,-23946 6792,-23407 7063,-22850C7334,-22293 7547,-21868 7703,-21576L7954,-21123C8256,-20498 8547,-19957 8829,-19498C9110,-19040 9362,-18683 9586,-18428C9810,-18172 10026,-17972 10235,-17826C10443,-17681 10620,-17607 10766,-17608C10912,-17607 11053,-17633 11188,-17686C11209,-17696 11235,-17722 11266,-17764C11297,-17805 11360,-17920 11454,-18108C11547,-18295 11617,-18540 11664,-18842C11711,-19144 11761,-19566 11813,-20108C11865,-20649 11865,-21300 11813,-22061C11792,-22477 11745,-22858 11672,-23202C11599,-23545 11527,-23785 11454,-23920L11360,-24108C11099,-24462 10657,-24686 10031,-24780C9896,-24801 9922,-24925 10110,-25155C10276,-25352 10474,-25509 10703,-25623C11256,-25894 12500,-26019 14438,-25998C15292,-25988 15995,-25920 16547,-25795C16756,-25743 16930,-25673 17071,-25584C17211,-25496 17318,-25371 17391,-25209C17464,-25048 17519,-24881 17555,-24709C17592,-24537 17610,-24301 17610,-23998C17610,-23696 17605,-23410 17594,-23139C17584,-22868 17570,-22501 17555,-22037C17539,-21574 17531,-21144 17531,-20748C17531,-20634 17526,-20415 17516,-20092C17505,-19769 17503,-19519 17508,-19342C17513,-19165 17531,-18954 17563,-18709C17594,-18464 17654,-18261 17743,-18100C17831,-17938 17948,-17811 18094,-17717C18177,-17696 18266,-17675 18360,-17654C18453,-17633 18589,-17691 18766,-17826C18943,-17962 19141,-18142 19360,-18365C19578,-18589 19849,-18938 20172,-19412C20495,-19886 20849,-20446 21235,-21092C21860,-22175 22417,-23347 22907,-24608C22948,-24712 23000,-24803 23063,-24881C23125,-24959 23183,-25014 23234,-25045L23297,-25092C23318,-25102 23344,-25116 23375,-25131C23406,-25147 23474,-25162 23578,-25178C23682,-25193 23787,-25196 23891,-25186L28391,-25217C28797,-25269 29131,-25256 29391,-25178C29651,-25100 29813,-25014 29875,-24920L29969,-24764Z" style="fill:white;fill-opacity:0.803922;"/>
            </g>
        </g>
    </g>
</svg>
